<svg width="30" height="30" viewBox="0 0 30 30" xmlns="http://www.w3.org/2000/svg"><desc>Created with Sketch.</desc><path d="M13.288 6.036l-1.376-5.136-1.206.323 1.375 5.13c.4-.132.8-.24 1.21-.317h-.003zm-6.954 6.034l-5.11-1.368-.324 1.205 5.116 1.37c.08-.406.182-.808.318-1.206v-.001zm2.668-3.954l-3.745-3.746-.883.883 3.74 3.74c.277-.318.577-.606.888-.877zm9.03-1.737l1.38-5.16-1.205-.322-1.38 5.15c.405.08.806.19 1.204.33l.001.002zm5.98 6.92l5.203-1.394-.323-1.206-5.2 1.395c.133.395.24.797.32 1.207v-.002zm-2.062-4.255l3.795-3.795-.883-.882-3.785 3.784c.316.28.603.58.873.893zm-.896 12.885l3.812 3.813.884-.882-3.813-3.81c-.276.317-.572.61-.883.88v-.001zm2.633-3.92l5.206 1.398.322-1.208-5.208-1.395c-.08.404-.183.808-.32 1.206v-.001zm-17.662-1.179l-5.125 1.372.324 1.206 5.127-1.374c-.133-.393-.24-.795-.323-1.204h-.003zm10.79 7.192l1.393 5.192 1.207-.322-1.394-5.197c-.39.136-.793.245-1.202.327h-.004zm-4.727-.29l-1.382 5.16 1.206.322 1.388-5.174c-.41-.077-.813-.173-1.212-.308zm-3.955-2.634l-3.763 3.762.884.884 3.767-3.767c-.32-.274-.61-.568-.885-.88l-.003.001zm10.542-12.328c-3.472-2.006-7.913-.814-9.918 2.657-2.005 3.473-.815 7.913 2.658 9.92 3.473 2.004 7.914.814 9.917-2.66 2.006-3.472.817-7.912-2.657-9.917z" fill="#FF9C00"/></svg>