<svg width="132" height="100" viewBox="0 0 132 100" xmlns="http://www.w3.org/2000/svg"><desc>Created with Sketch.</desc><g fill-rule="nonzero" fill="none"><path d="M27.945 24.891l-12.909-12.923-3.045 3.045 12.886 12.895c.955-1.091 1.991-2.091 3.064-3.018h.005zm30.682-6.173l4.532-16.918-4.159-1.118-4.555 17c1.409.255 2.8.591 4.182 1.036zm13.977 9.382l13.091-13.091-3.045-3.045-13.059 13.059c1.091.955 2.077 2 3.014 3.077zm-53.864 10.427l-17.623-4.718-1.118 4.155 17.645 4.727c.273-1.4.627-2.791 1.091-4.164h.005zm23.986-20.818l-4.741-17.709-4.168 1.118 4.745 17.7c1.364-.464 2.755-.836 4.164-1.109zm-25.045 37.227l-17.682 4.745 1.118 4.159 17.682-4.75c-.468-1.355-.841-2.741-1.123-4.15l.005-.005zm56-6.182c0 13.786-11.182 24.964-24.973 24.964-13.795 0-24.973-11.182-24.973-24.968s11.182-24.968 24.973-24.968c13.791 0 24.968 11.182 24.968 24.968l.005.005z" id="Shape" fill="#FF9C00"/><path d="M105.977 60.059c-2.118-14.773-14.8-26.15-30.168-26.15-13.355 0-24.682 8.6-28.818 20.545l-1.827-.091c-9.545 0-17.545 6.577-19.75 15.445l-.545-.059c-8.345 0-15.114 6.773-15.114 15.127 0 8.291 6.673 15 14.932 15.105l86.086.018h.595c11.245 0 20.364-9.109 20.364-20.345 0-11.236-9.123-20.336-20.364-20.336-1.868 0-3.668.273-5.391.741z" fill="#fff"/></g></svg>